# xmcd CD database file
#
# Track frame offsets:
#	150
#	1574
#	25543
#	54916
#	71379
#	88991
#	107548
#	123210
#	141329
#	160018
#	175187
#	200611
#	218130
#	238050
#	258240
#	273827
#	300446
#	311227
#
# Disc length: 4168 seconds
#
# Revision: 0
# Processed by: cddbd v1.5.2PL0 Copyright (c) Steve Scherf et al.
# Submitted via: Feurio! 1.68 - http://www.feurio.com
#
DISCID=e6104612
DTITLE=The Exotic World of - Niehoffs Vaihiner
DYEAR=1900
DGENRE=Disco
TTITLE0=David Dundas - The Flight of the Tucan
TTITLE1=Remix Version Samba Tres - (Un, Dos, Tres) Maria
TTITLE2=Concord - Lambada
TTITLE3=Batida Band - Jammin'at Barbados
TTITLE4=Jimmy Cliff - Samba Reggae
TTITLE5=Baby Rasta Band - Gimme Shelter
TTITLE6=Los Reyes - Bamboleo
TTITLE7=Baby Rasta Band - Knocking on Heavens Door
TTITLE8=Patricia and Xavier Latino - Tic Tic Tac
TTITLE9=Coconut Groove - Lambada
TTITLE10=Fun Party - Ritmo De La Noche
TTITLE11=Gidea Park - Lai Loh Lah Limbo
TTITLE12=Goombay Dance Band - Sun of Jamaica
TTITLE13=Al Jarreau - One Note Samba
TTITLE14=Maria and Dolores Isabel - Sole Se Viva Una Vez
TTITLE15=Fruko Y Sus Tesos - Los Patulekos
TTITLE16=Jean and Dean - It's Such a Good Night for Dreaming
TTITLE17=David Dundas - Tucan Spirit
EXTD=
EXTT0=
EXTT1=
EXTT2=
EXTT3=
EXTT4=
EXTT5=
EXTT6=
EXTT7=
EXTT8=
EXTT9=
EXTT10=
EXTT11=
EXTT12=
EXTT13=
EXTT14=
EXTT15=
EXTT16=
EXTT17=
PLAYORDER=
